<svg xmlns="http://www.w3.org/2000/svg" viewBox="0 0 1152 576" role="img" aria-label="Sheet B layout" class="sheetsvg"><rect x="0" y="0" width="1152" height="576" fill="#D9C2A0" stroke="#17252F" stroke-width="2"/><polygon points="6.00,570.00 380.63,570.00 380.63,273.00 6.00,273.00" fill="#E6C7A3" stroke="#17252F" stroke-width="1.6"/><polygon points="18.75,437.25 19.01,438.87 19.75,440.34 20.91,441.50 22.38,442.24 24.00,442.50 25.62,442.24 27.09,441.50 28.25,440.34 28.99,438.87 29.25,437.25 29.25,405.75 28.99,404.13 28.25,402.66 27.09,401.50 25.62,400.76 24.00,400.50 22.38,400.76 20.91,401.50 19.75,402.66 19.01,404.13 18.75,405.75" fill="#0F7C7A" fill-opacity=".28" stroke="#0F7C7A" stroke-width="1.1"/><text x="193.3" y="426.5" text-anchor="middle" class="sheetlbl">DOOR_L</text><polygon points="386.63,570.00 761.25,570.00 761.25,273.00 386.63,273.00" fill="#E6C7A3" stroke="#17252F" stroke-width="1.6"/><polygon points="738.00,437.25 738.26,438.87 739.00,440.34 740.16,441.50 741.63,442.24 743.25,442.50 744.87,442.24 746.34,441.50 747.50,440.34 748.24,438.87 748.50,437.25 748.50,405.75 748.24,404.13 747.50,402.66 746.34,401.50 744.87,400.76 743.25,400.50 741.63,400.76 740.16,401.50 739.00,402.66 738.26,404.13 738.00,405.75" fill="#0F7C7A" fill-opacity=".28" stroke="#0F7C7A" stroke-width="1.1"/><text x="573.9" y="426.5" text-anchor="middle" class="sheetlbl">DOOR_R</text><polygon points="1066.31,570.00 1066.31,486.45 767.25,486.45 767.25,570.00" fill="#E6C7A3" stroke="#17252F" stroke-width="1.6"/><circle cx="1033.3" cy="561.0" r="2.5" fill="#fff" stroke="#B12A6B" stroke-width="1.4"/><circle cx="1033.3" cy="500.9" r="2.5" fill="#fff" stroke="#B12A6B" stroke-width="1.4"/><circle cx="1018.3" cy="561.0" r="2.5" fill="#fff" stroke="#B12A6B" stroke-width="1.4"/><circle cx="1018.3" cy="500.9" r="2.5" fill="#fff" stroke="#B12A6B" stroke-width="1.4"/><circle cx="1003.3" cy="561.0" r="2.5" fill="#fff" stroke="#B12A6B" stroke-width="1.4"/><circle cx="1003.3" cy="500.9" r="2.5" fill="#fff" stroke="#B12A6B" stroke-width="1.4"/><circle cx="988.3" cy="561.0" r="2.5" fill="#fff" stroke="#B12A6B" stroke-width="1.4"/><circle cx="988.3" cy="500.9" r="2.5" fill="#fff" stroke="#B12A6B" stroke-width="1.4"/><circle cx="973.3" cy="561.0" r="2.5" fill="#fff" stroke="#B12A6B" stroke-width="1.4"/><circle cx="973.3" cy="500.9" r="2.5" fill="#fff" stroke="#B12A6B" stroke-width="1.4"/><circle cx="958.3" cy="561.0" r="2.5" fill="#fff" stroke="#B12A6B" stroke-width="1.4"/><circle cx="958.3" cy="500.9" r="2.5" fill="#fff" stroke="#B12A6B" stroke-width="1.4"/><circle cx="943.3" cy="561.0" r="2.5" fill="#fff" stroke="#B12A6B" stroke-width="1.4"/><circle cx="943.3" cy="500.9" r="2.5" fill="#fff" stroke="#B12A6B" stroke-width="1.4"/><circle cx="928.3" cy="561.0" r="2.5" fill="#fff" stroke="#B12A6B" stroke-width="1.4"/><circle cx="928.3" cy="500.9" r="2.5" fill="#fff" stroke="#B12A6B" stroke-width="1.4"/><circle cx="913.3" cy="561.0" r="2.5" fill="#fff" stroke="#B12A6B" stroke-width="1.4"/><circle cx="913.3" cy="500.9" r="2.5" fill="#fff" stroke="#B12A6B" stroke-width="1.4"/><circle cx="898.3" cy="561.0" r="2.5" fill="#fff" stroke="#B12A6B" stroke-width="1.4"/><circle cx="898.3" cy="500.9" r="2.5" fill="#fff" stroke="#B12A6B" stroke-width="1.4"/><circle cx="883.3" cy="561.0" r="2.5" fill="#fff" stroke="#B12A6B" stroke-width="1.4"/><circle cx="883.3" cy="500.9" r="2.5" fill="#fff" stroke="#B12A6B" stroke-width="1.4"/><circle cx="868.3" cy="561.0" r="2.5" fill="#fff" stroke="#B12A6B" stroke-width="1.4"/><circle cx="868.3" cy="500.9" r="2.5" fill="#fff" stroke="#B12A6B" stroke-width="1.4"/><circle cx="853.3" cy="561.0" r="2.5" fill="#fff" stroke="#B12A6B" stroke-width="1.4"/><circle cx="853.3" cy="500.9" r="2.5" fill="#fff" stroke="#B12A6B" stroke-width="1.4"/><circle cx="838.3" cy="561.0" r="2.5" fill="#fff" stroke="#B12A6B" stroke-width="1.4"/><circle cx="838.3" cy="500.9" r="2.5" fill="#fff" stroke="#B12A6B" stroke-width="1.4"/><circle cx="823.3" cy="561.0" r="2.5" fill="#fff" stroke="#B12A6B" stroke-width="1.4"/><circle cx="823.3" cy="500.9" r="2.5" fill="#fff" stroke="#B12A6B" stroke-width="1.4"/><circle cx="808.3" cy="561.0" r="2.5" fill="#fff" stroke="#B12A6B" stroke-width="1.4"/><circle cx="808.3" cy="500.9" r="2.5" fill="#fff" stroke="#B12A6B" stroke-width="1.4"/><text x="916.8" y="533.2" text-anchor="middle" class="sheetlbl">DIV_L</text><polygon points="1066.31,480.45 1066.31,396.90 767.25,396.90 767.25,480.45" fill="#E6C7A3" stroke="#17252F" stroke-width="1.6"/><circle cx="1033.3" cy="405.9" r="2.5" fill="#fff" stroke="#B12A6B" stroke-width="1.4"/><circle cx="1033.3" cy="466.1" r="2.5" fill="#fff" stroke="#B12A6B" stroke-width="1.4"/><circle cx="1018.3" cy="405.9" r="2.5" fill="#fff" stroke="#B12A6B" stroke-width="1.4"/><circle cx="1018.3" cy="466.1" r="2.5" fill="#fff" stroke="#B12A6B" stroke-width="1.4"/><circle cx="1003.3" cy="405.9" r="2.5" fill="#fff" stroke="#B12A6B" stroke-width="1.4"/><circle cx="1003.3" cy="466.1" r="2.5" fill="#fff" stroke="#B12A6B" stroke-width="1.4"/><circle cx="988.3" cy="405.9" r="2.5" fill="#fff" stroke="#B12A6B" stroke-width="1.4"/><circle cx="988.3" cy="466.1" r="2.5" fill="#fff" stroke="#B12A6B" stroke-width="1.4"/><circle cx="973.3" cy="405.9" r="2.5" fill="#fff" stroke="#B12A6B" stroke-width="1.4"/><circle cx="973.3" cy="466.1" r="2.5" fill="#fff" stroke="#B12A6B" stroke-width="1.4"/><circle cx="958.3" cy="405.9" r="2.5" fill="#fff" stroke="#B12A6B" stroke-width="1.4"/><circle cx="958.3" cy="466.1" r="2.5" fill="#fff" stroke="#B12A6B" stroke-width="1.4"/><circle cx="943.3" cy="405.9" r="2.5" fill="#fff" stroke="#B12A6B" stroke-width="1.4"/><circle cx="943.3" cy="466.1" r="2.5" fill="#fff" stroke="#B12A6B" stroke-width="1.4"/><circle cx="928.3" cy="405.9" r="2.5" fill="#fff" stroke="#B12A6B" stroke-width="1.4"/><circle cx="928.3" cy="466.1" r="2.5" fill="#fff" stroke="#B12A6B" stroke-width="1.4"/><circle cx="913.3" cy="405.9" r="2.5" fill="#fff" stroke="#B12A6B" stroke-width="1.4"/><circle cx="913.3" cy="466.1" r="2.5" fill="#fff" stroke="#B12A6B" stroke-width="1.4"/><circle cx="898.3" cy="405.9" r="2.5" fill="#fff" stroke="#B12A6B" stroke-width="1.4"/><circle cx="898.3" cy="466.1" r="2.5" fill="#fff" stroke="#B12A6B" stroke-width="1.4"/><circle cx="883.3" cy="405.9" r="2.5" fill="#fff" stroke="#B12A6B" stroke-width="1.4"/><circle cx="883.3" cy="466.1" r="2.5" fill="#fff" stroke="#B12A6B" stroke-width="1.4"/><circle cx="868.3" cy="405.9" r="2.5" fill="#fff" stroke="#B12A6B" stroke-width="1.4"/><circle cx="868.3" cy="466.1" r="2.5" fill="#fff" stroke="#B12A6B" stroke-width="1.4"/><circle cx="853.3" cy="405.9" r="2.5" fill="#fff" stroke="#B12A6B" stroke-width="1.4"/><circle cx="853.3" cy="466.1" r="2.5" fill="#fff" stroke="#B12A6B" stroke-width="1.4"/><circle cx="838.3" cy="405.9" r="2.5" fill="#fff" stroke="#B12A6B" stroke-width="1.4"/><circle cx="838.3" cy="466.1" r="2.5" fill="#fff" stroke="#B12A6B" stroke-width="1.4"/><circle cx="823.3" cy="405.9" r="2.5" fill="#fff" stroke="#B12A6B" stroke-width="1.4"/><circle cx="823.3" cy="466.1" r="2.5" fill="#fff" stroke="#B12A6B" stroke-width="1.4"/><circle cx="808.3" cy="405.9" r="2.5" fill="#fff" stroke="#B12A6B" stroke-width="1.4"/><circle cx="808.3" cy="466.1" r="2.5" fill="#fff" stroke="#B12A6B" stroke-width="1.4"/><text x="916.8" y="443.7" text-anchor="middle" class="sheetlbl">DIV_R</text><polygon points="6.00,262.88 70.88,262.88 70.88,267.00 94.88,267.00 94.88,262.88 180.56,262.88 180.56,267.00 204.56,267.00 204.56,262.88 290.25,262.88 290.25,267.00 314.25,267.00 314.25,262.88 436.50,262.88 436.50,267.00 460.50,267.00 460.50,262.88 546.19,262.88 546.19,267.00 570.19,267.00 570.19,262.88 655.88,262.88 655.88,267.00 679.88,267.00 679.88,262.88 744.75,262.88 744.75,172.05 6.00,172.05" fill="#E6C7A3" stroke="#17252F" stroke-width="1.6"/><polygon points="9.69,234.06 15.43,234.06 15.43,209.94 9.69,209.94" fill="#0F7C7A" fill-opacity=".28" stroke="#0F7C7A" stroke-width="1.1"/><polygon points="9.69,197.73 15.43,197.73 15.43,173.61 9.69,173.61" fill="#0F7C7A" fill-opacity=".28" stroke="#0F7C7A" stroke-width="1.1"/><polygon points="735.32,234.06 741.06,234.06 741.06,209.94 735.32,209.94" fill="#0F7C7A" fill-opacity=".28" stroke="#0F7C7A" stroke-width="1.1"/><polygon points="735.32,197.73 741.06,197.73 741.06,173.61 735.32,173.61" fill="#0F7C7A" fill-opacity=".28" stroke="#0F7C7A" stroke-width="1.1"/><polygon points="141.32,177.74 177.44,177.74 177.44,172.05 141.32,172.05" fill="#0F7C7A" fill-opacity=".28" stroke="#0F7C7A" stroke-width="1.1"/><polygon points="357.32,177.74 393.44,177.74 393.44,172.05 357.32,172.05" fill="#0F7C7A" fill-opacity=".28" stroke="#0F7C7A" stroke-width="1.1"/><polygon points="573.31,177.74 609.44,177.74 609.44,172.05 573.31,172.05" fill="#0F7C7A" fill-opacity=".28" stroke="#0F7C7A" stroke-width="1.1"/><text x="375.4" y="224.5" text-anchor="middle" class="sheetlbl">BOTTOM</text><polygon points="6.00,163.05 132.00,163.05 132.00,166.05 168.00,166.05 168.00,163.05 348.00,163.05 348.00,166.05 384.00,166.05 384.00,163.05 564.00,163.05 564.00,166.05 600.00,166.05 600.00,163.05 726.00,163.05 726.00,124.80 6.00,124.80" fill="#E6C7A3" stroke="#17252F" stroke-width="1.6"/><text x="366.0" y="150.4" text-anchor="middle" class="sheetlbl">BACK</text><polygon points="753.75,264.00 782.62,264.00 782.62,267.00 806.62,267.00 806.62,264.00 818.95,264.00 818.95,267.00 842.95,267.00 842.95,264.00 844.58,264.00 844.58,225.75 753.75,225.75" fill="#E6C7A3" stroke="#17252F" stroke-width="1.6"/><text x="799.2" y="251.4" text-anchor="middle" class="sheetlbl">END_L</text><polygon points="844.58,178.50 753.75,178.50 753.75,216.75 755.37,216.75 755.37,219.75 779.37,219.75 779.37,216.75 791.70,216.75 791.70,219.75 815.70,219.75 815.70,216.75 844.58,216.75" fill="#E6C7A3" stroke="#17252F" stroke-width="1.6"/><text x="799.2" y="204.1" text-anchor="middle" class="sheetlbl">END_R</text></svg>