0
SECTION
2
HEADER
9
$ACADVER
1
AC1009
9
$INSUNITS
70
1
9
$MEASUREMENT
70
0
0
ENDSEC
0
SECTION
2
TABLES
0
TABLE
2
LAYER
70
6
0
LAYER
2
SHEET_BORDER
70
0
62
8
6
CONTINUOUS
0
LAYER
2
PROFILE_OUTSIDE
70
0
62
1
6
CONTINUOUS
0
LAYER
2
POCKET_0.188
70
0
62
4
6
CONTINUOUS
0
LAYER
2
LABEL_NOCUT
70
0
62
3
6
CONTINUOUS
0
LAYER
2
DRILL_0.250_D0.250
70
0
62
6
6
CONTINUOUS
0
LAYER
2
POCKET_0.281
70
0
62
2
6
CONTINUOUS
0
ENDTAB
0
ENDSEC
0
SECTION
2
ENTITIES
0
POLYLINE
8
SHEET_BORDER
66
1
70
1
10
0
20
0
30
0
0
VERTEX
8
SHEET_BORDER
10
0
20
0
30
0
0
VERTEX
8
SHEET_BORDER
10
96
20
0
30
0
0
VERTEX
8
SHEET_BORDER
10
96
20
48
30
0
0
VERTEX
8
SHEET_BORDER
10
0
20
48
30
0
0
SEQEND
8
SHEET_BORDER
0
POLYLINE
8
PROFILE_OUTSIDE
66
1
70
1
10
0
20
0
30
0
0
VERTEX
8
PROFILE_OUTSIDE
10
0.5
20
0.5
30
0
0
VERTEX
8
PROFILE_OUTSIDE
10
31.7188
20
0.5
30
0
0
VERTEX
8
PROFILE_OUTSIDE
10
31.7188
20
25.25
30
0
0
VERTEX
8
PROFILE_OUTSIDE
10
0.5
20
25.25
30
0
0
SEQEND
8
PROFILE_OUTSIDE
0
POLYLINE
8
POCKET_0.188
66
1
70
1
10
0
20
0
30
0
0
VERTEX
8
POCKET_0.188
10
1.5625
20
11.5625
30
0
0
VERTEX
8
POCKET_0.188
10
1.5839
20
11.4273
30
0
0
VERTEX
8
POCKET_0.188
10
1.6461
20
11.3053
30
0
0
VERTEX
8
POCKET_0.188
10
1.7428
20
11.2086
30
0
0
VERTEX
8
POCKET_0.188
10
1.8648
20
11.1464
30
0
0
VERTEX
8
POCKET_0.188
10
2
20
11.125
30
0
0
VERTEX
8
POCKET_0.188
10
2.1352
20
11.1464
30
0
0
VERTEX
8
POCKET_0.188
10
2.2572
20
11.2086
30
0
0
VERTEX
8
POCKET_0.188
10
2.3539
20
11.3053
30
0
0
VERTEX
8
POCKET_0.188
10
2.4161
20
11.4273
30
0
0
VERTEX
8
POCKET_0.188
10
2.4375
20
11.5625
30
0
0
VERTEX
8
POCKET_0.188
10
2.4375
20
14.1875
30
0
0
VERTEX
8
POCKET_0.188
10
2.4161
20
14.3227
30
0
0
VERTEX
8
POCKET_0.188
10
2.3539
20
14.4447
30
0
0
VERTEX
8
POCKET_0.188
10
2.2572
20
14.5414
30
0
0
VERTEX
8
POCKET_0.188
10
2.1352
20
14.6036
30
0
0
VERTEX
8
POCKET_0.188
10
2
20
14.625
30
0
0
VERTEX
8
POCKET_0.188
10
1.8648
20
14.6036
30
0
0
VERTEX
8
POCKET_0.188
10
1.7428
20
14.5414
30
0
0
VERTEX
8
POCKET_0.188
10
1.6461
20
14.4447
30
0
0
VERTEX
8
POCKET_0.188
10
1.5839
20
14.3227
30
0
0
VERTEX
8
POCKET_0.188
10
1.5625
20
14.1875
30
0
0
SEQEND
8
POCKET_0.188
0
TEXT
8
LABEL_NOCUT
10
0.9
20
12.675
30
0
40
0.4
1
DOOR_L
0
POLYLINE
8
PROFILE_OUTSIDE
66
1
70
1
10
0
20
0
30
0
0
VERTEX
8
PROFILE_OUTSIDE
10
32.2188
20
0.5
30
0
0
VERTEX
8
PROFILE_OUTSIDE
10
63.4375
20
0.5
30
0
0
VERTEX
8
PROFILE_OUTSIDE
10
63.4375
20
25.25
30
0
0
VERTEX
8
PROFILE_OUTSIDE
10
32.2188
20
25.25
30
0
0
SEQEND
8
PROFILE_OUTSIDE
0
POLYLINE
8
POCKET_0.188
66
1
70
1
10
0
20
0
30
0
0
VERTEX
8
POCKET_0.188
10
61.5
20
11.5625
30
0
0
VERTEX
8
POCKET_0.188
10
61.5214
20
11.4273
30
0
0
VERTEX
8
POCKET_0.188
10
61.5836
20
11.3053
30
0
0
VERTEX
8
POCKET_0.188
10
61.6803
20
11.2086
30
0
0
VERTEX
8
POCKET_0.188
10
61.8023
20
11.1464
30
0
0
VERTEX
8
POCKET_0.188
10
61.9375
20
11.125
30
0
0
VERTEX
8
POCKET_0.188
10
62.0727
20
11.1464
30
0
0
VERTEX
8
POCKET_0.188
10
62.1947
20
11.2086
30
0
0
VERTEX
8
POCKET_0.188
10
62.2914
20
11.3053
30
0
0
VERTEX
8
POCKET_0.188
10
62.3536
20
11.4273
30
0
0
VERTEX
8
POCKET_0.188
10
62.375
20
11.5625
30
0
0
VERTEX
8
POCKET_0.188
10
62.375
20
14.1875
30
0
0
VERTEX
8
POCKET_0.188
10
62.3536
20
14.3227
30
0
0
VERTEX
8
POCKET_0.188
10
62.2914
20
14.4447
30
0
0
VERTEX
8
POCKET_0.188
10
62.1947
20
14.5414
30
0
0
VERTEX
8
POCKET_0.188
10
62.0727
20
14.6036
30
0
0
VERTEX
8
POCKET_0.188
10
61.9375
20
14.625
30
0
0
VERTEX
8
POCKET_0.188
10
61.8023
20
14.6036
30
0
0
VERTEX
8
POCKET_0.188
10
61.6803
20
14.5414
30
0
0
VERTEX
8
POCKET_0.188
10
61.5836
20
14.4447
30
0
0
VERTEX
8
POCKET_0.188
10
61.5214
20
14.3227
30
0
0
VERTEX
8
POCKET_0.188
10
61.5
20
14.1875
30
0
0
SEQEND
8
POCKET_0.188
0
TEXT
8
LABEL_NOCUT
10
32.6188
20
12.675
30
0
40
0.4
1
DOOR_R
0
POLYLINE
8
PROFILE_OUTSIDE
66
1
70
1
10
0
20
0
30
0
0
VERTEX
8
PROFILE_OUTSIDE
10
88.8594
20
0.5
30
0
0
VERTEX
8
PROFILE_OUTSIDE
10
88.8594
20
7.4625
30
0
0
VERTEX
8
PROFILE_OUTSIDE
10
63.9375
20
7.4625
30
0
0
VERTEX
8
PROFILE_OUTSIDE
10
63.9375
20
0.5
30
0
0
SEQEND
8
PROFILE_OUTSIDE
0
CIRCLE
8
DRILL_0.250_D0.250
10
86.1094
20
1.25
30
0
40
0.125
0
CIRCLE
8
DRILL_0.250_D0.250
10
86.1094
20
6.2625
30
0
40
0.125
0
CIRCLE
8
DRILL_0.250_D0.250
10
84.8594
20
1.25
30
0
40
0.125
0
CIRCLE
8
DRILL_0.250_D0.250
10
84.8594
20
6.2625
30
0
40
0.125
0
CIRCLE
8
DRILL_0.250_D0.250
10
83.6094
20
1.25
30
0
40
0.125
0
CIRCLE
8
DRILL_0.250_D0.250
10
83.6094
20
6.2625
30
0
40
0.125
0
CIRCLE
8
DRILL_0.250_D0.250
10
82.3594
20
1.25
30
0
40
0.125
0
CIRCLE
8
DRILL_0.250_D0.250
10
82.3594
20
6.2625
30
0
40
0.125
0
CIRCLE
8
DRILL_0.250_D0.250
10
81.1094
20
1.25
30
0
40
0.125
0
CIRCLE
8
DRILL_0.250_D0.250
10
81.1094
20
6.2625
30
0
40
0.125
0
CIRCLE
8
DRILL_0.250_D0.250
10
79.8594
20
1.25
30
0
40
0.125
0
CIRCLE
8
DRILL_0.250_D0.250
10
79.8594
20
6.2625
30
0
40
0.125
0
CIRCLE
8
DRILL_0.250_D0.250
10
78.6094
20
1.25
30
0
40
0.125
0
CIRCLE
8
DRILL_0.250_D0.250
10
78.6094
20
6.2625
30
0
40
0.125
0
CIRCLE
8
DRILL_0.250_D0.250
10
77.3594
20
1.25
30
0
40
0.125
0
CIRCLE
8
DRILL_0.250_D0.250
10
77.3594
20
6.2625
30
0
40
0.125
0
CIRCLE
8
DRILL_0.250_D0.250
10
76.1094
20
1.25
30
0
40
0.125
0
CIRCLE
8
DRILL_0.250_D0.250
10
76.1094
20
6.2625
30
0
40
0.125
0
CIRCLE
8
DRILL_0.250_D0.250
10
74.8594
20
1.25
30
0
40
0.125
0
CIRCLE
8
DRILL_0.250_D0.250
10
74.8594
20
6.2625
30
0
40
0.125
0
CIRCLE
8
DRILL_0.250_D0.250
10
73.6094
20
1.25
30
0
40
0.125
0
CIRCLE
8
DRILL_0.250_D0.250
10
73.6094
20
6.2625
30
0
40
0.125
0
CIRCLE
8
DRILL_0.250_D0.250
10
72.3594
20
1.25
30
0
40
0.125
0
CIRCLE
8
DRILL_0.250_D0.250
10
72.3594
20
6.2625
30
0
40
0.125
0
CIRCLE
8
DRILL_0.250_D0.250
10
71.1094
20
1.25
30
0
40
0.125
0
CIRCLE
8
DRILL_0.250_D0.250
10
71.1094
20
6.2625
30
0
40
0.125
0
CIRCLE
8
DRILL_0.250_D0.250
10
69.8594
20
1.25
30
0
40
0.125
0
CIRCLE
8
DRILL_0.250_D0.250
10
69.8594
20
6.2625
30
0
40
0.125
0
CIRCLE
8
DRILL_0.250_D0.250
10
68.6094
20
1.25
30
0
40
0.125
0
CIRCLE
8
DRILL_0.250_D0.250
10
68.6094
20
6.2625
30
0
40
0.125
0
CIRCLE
8
DRILL_0.250_D0.250
10
67.3594
20
1.25
30
0
40
0.125
0
CIRCLE
8
DRILL_0.250_D0.250
10
67.3594
20
6.2625
30
0
40
0.125
0
TEXT
8
LABEL_NOCUT
10
64.3375
20
3.7812
30
0
40
0.4
1
DIV_L
0
POLYLINE
8
PROFILE_OUTSIDE
66
1
70
1
10
0
20
0
30
0
0
VERTEX
8
PROFILE_OUTSIDE
10
88.8594
20
7.9625
30
0
0
VERTEX
8
PROFILE_OUTSIDE
10
88.8594
20
14.925
30
0
0
VERTEX
8
PROFILE_OUTSIDE
10
63.9375
20
14.925
30
0
0
VERTEX
8
PROFILE_OUTSIDE
10
63.9375
20
7.9625
30
0
0
SEQEND
8
PROFILE_OUTSIDE
0
CIRCLE
8
DRILL_0.250_D0.250
10
86.1094
20
14.175
30
0
40
0.125
0
CIRCLE
8
DRILL_0.250_D0.250
10
86.1094
20
9.1625
30
0
40
0.125
0
CIRCLE
8
DRILL_0.250_D0.250
10
84.8594
20
14.175
30
0
40
0.125
0
CIRCLE
8
DRILL_0.250_D0.250
10
84.8594
20
9.1625
30
0
40
0.125
0
CIRCLE
8
DRILL_0.250_D0.250
10
83.6094
20
14.175
30
0
40
0.125
0
CIRCLE
8
DRILL_0.250_D0.250
10
83.6094
20
9.1625
30
0
40
0.125
0
CIRCLE
8
DRILL_0.250_D0.250
10
82.3594
20
14.175
30
0
40
0.125
0
CIRCLE
8
DRILL_0.250_D0.250
10
82.3594
20
9.1625
30
0
40
0.125
0
CIRCLE
8
DRILL_0.250_D0.250
10
81.1094
20
14.175
30
0
40
0.125
0
CIRCLE
8
DRILL_0.250_D0.250
10
81.1094
20
9.1625
30
0
40
0.125
0
CIRCLE
8
DRILL_0.250_D0.250
10
79.8594
20
14.175
30
0
40
0.125
0
CIRCLE
8
DRILL_0.250_D0.250
10
79.8594
20
9.1625
30
0
40
0.125
0
CIRCLE
8
DRILL_0.250_D0.250
10
78.6094
20
14.175
30
0
40
0.125
0
CIRCLE
8
DRILL_0.250_D0.250
10
78.6094
20
9.1625
30
0
40
0.125
0
CIRCLE
8
DRILL_0.250_D0.250
10
77.3594
20
14.175
30
0
40
0.125
0
CIRCLE
8
DRILL_0.250_D0.250
10
77.3594
20
9.1625
30
0
40
0.125
0
CIRCLE
8
DRILL_0.250_D0.250
10
76.1094
20
14.175
30
0
40
0.125
0
CIRCLE
8
DRILL_0.250_D0.250
10
76.1094
20
9.1625
30
0
40
0.125
0
CIRCLE
8
DRILL_0.250_D0.250
10
74.8594
20
14.175
30
0
40
0.125
0
CIRCLE
8
DRILL_0.250_D0.250
10
74.8594
20
9.1625
30
0
40
0.125
0
CIRCLE
8
DRILL_0.250_D0.250
10
73.6094
20
14.175
30
0
40
0.125
0
CIRCLE
8
DRILL_0.250_D0.250
10
73.6094
20
9.1625
30
0
40
0.125
0
CIRCLE
8
DRILL_0.250_D0.250
10
72.3594
20
14.175
30
0
40
0.125
0
CIRCLE
8
DRILL_0.250_D0.250
10
72.3594
20
9.1625
30
0
40
0.125
0
CIRCLE
8
DRILL_0.250_D0.250
10
71.1094
20
14.175
30
0
40
0.125
0
CIRCLE
8
DRILL_0.250_D0.250
10
71.1094
20
9.1625
30
0
40
0.125
0
CIRCLE
8
DRILL_0.250_D0.250
10
69.8594
20
14.175
30
0
40
0.125
0
CIRCLE
8
DRILL_0.250_D0.250
10
69.8594
20
9.1625
30
0
40
0.125
0
CIRCLE
8
DRILL_0.250_D0.250
10
68.6094
20
14.175
30
0
40
0.125
0
CIRCLE
8
DRILL_0.250_D0.250
10
68.6094
20
9.1625
30
0
40
0.125
0
CIRCLE
8
DRILL_0.250_D0.250
10
67.3594
20
14.175
30
0
40
0.125
0
CIRCLE
8
DRILL_0.250_D0.250
10
67.3594
20
9.1625
30
0
40
0.125
0
TEXT
8
LABEL_NOCUT
10
64.3375
20
11.2438
30
0
40
0.4
1
DIV_R
0
POLYLINE
8
PROFILE_OUTSIDE
66
1
70
1
10
0
20
0
30
0
0
VERTEX
8
PROFILE_OUTSIDE
10
0.5
20
26.0938
30
0
0
VERTEX
8
PROFILE_OUTSIDE
10
5.9063
20
26.0938
30
0
0
VERTEX
8
PROFILE_OUTSIDE
10
5.9063
20
25.75
30
0
0
VERTEX
8
PROFILE_OUTSIDE
10
7.9063
20
25.75
30
0
0
VERTEX
8
PROFILE_OUTSIDE
10
7.9063
20
26.0938
30
0
0
VERTEX
8
PROFILE_OUTSIDE
10
15.0469
20
26.0938
30
0
0
VERTEX
8
PROFILE_OUTSIDE
10
15.0469
20
25.75
30
0
0
VERTEX
8
PROFILE_OUTSIDE
10
17.0469
20
25.75
30
0
0
VERTEX
8
PROFILE_OUTSIDE
10
17.0469
20
26.0938
30
0
0
VERTEX
8
PROFILE_OUTSIDE
10
24.1875
20
26.0938
30
0
0
VERTEX
8
PROFILE_OUTSIDE
10
24.1875
20
25.75
30
0
0
VERTEX
8
PROFILE_OUTSIDE
10
26.1875
20
25.75
30
0
0
VERTEX
8
PROFILE_OUTSIDE
10
26.1875
20
26.0938
30
0
0
VERTEX
8
PROFILE_OUTSIDE
10
36.375
20
26.0938
30
0
0
VERTEX
8
PROFILE_OUTSIDE
10
36.375
20
25.75
30
0
0
VERTEX
8
PROFILE_OUTSIDE
10
38.375
20
25.75
30
0
0
VERTEX
8
PROFILE_OUTSIDE
10
38.375
20
26.0938
30
0
0
VERTEX
8
PROFILE_OUTSIDE
10
45.5156
20
26.0938
30
0
0
VERTEX
8
PROFILE_OUTSIDE
10
45.5156
20
25.75
30
0
0
VERTEX
8
PROFILE_OUTSIDE
10
47.5156
20
25.75
30
0
0
VERTEX
8
PROFILE_OUTSIDE
10
47.5156
20
26.0938
30
0
0
VERTEX
8
PROFILE_OUTSIDE
10
54.6563
20
26.0938
30
0
0
VERTEX
8
PROFILE_OUTSIDE
10
54.6563
20
25.75
30
0
0
VERTEX
8
PROFILE_OUTSIDE
10
56.6563
20
25.75
30
0
0
VERTEX
8
PROFILE_OUTSIDE
10
56.6563
20
26.0938
30
0
0
VERTEX
8
PROFILE_OUTSIDE
10
62.0625
20
26.0938
30
0
0
VERTEX
8
PROFILE_OUTSIDE
10
62.0625
20
33.6625
30
0
0
VERTEX
8
PROFILE_OUTSIDE
10
0.5
20
33.6625
30
0
0
SEQEND
8
PROFILE_OUTSIDE
0
POLYLINE
8
POCKET_0.281
66
1
70
1
10
0
20
0
30
0
0
VERTEX
8
POCKET_0.281
10
0.8075
20
28.4947
30
0
0
VERTEX
8
POCKET_0.281
10
1.2862
20
28.4947
30
0
0
VERTEX
8
POCKET_0.281
10
1.2862
20
30.5047
30
0
0
VERTEX
8
POCKET_0.281
10
0.8075
20
30.5047
30
0
0
SEQEND
8
POCKET_0.281
0
POLYLINE
8
POCKET_0.281
66
1
70
1
10
0
20
0
30
0
0
VERTEX
8
POCKET_0.281
10
0.8075
20
31.5222
30
0
0
VERTEX
8
POCKET_0.281
10
1.2862
20
31.5222
30
0
0
VERTEX
8
POCKET_0.281
10
1.2862
20
33.5322
30
0
0
VERTEX
8
POCKET_0.281
10
0.8075
20
33.5322
30
0
0
SEQEND
8
POCKET_0.281
0
POLYLINE
8
POCKET_0.281
66
1
70
1
10
0
20
0
30
0
0
VERTEX
8
POCKET_0.281
10
61.2763
20
28.4947
30
0
0
VERTEX
8
POCKET_0.281
10
61.755
20
28.4947
30
0
0
VERTEX
8
POCKET_0.281
10
61.755
20
30.5047
30
0
0
VERTEX
8
POCKET_0.281
10
61.2763
20
30.5047
30
0
0
SEQEND
8
POCKET_0.281
0
POLYLINE
8
POCKET_0.281
66
1
70
1
10
0
20
0
30
0
0
VERTEX
8
POCKET_0.281
10
61.2763
20
31.5222
30
0
0
VERTEX
8
POCKET_0.281
10
61.755
20
31.5222
30
0
0
VERTEX
8
POCKET_0.281
10
61.755
20
33.5322
30
0
0
VERTEX
8
POCKET_0.281
10
61.2763
20
33.5322
30
0
0
SEQEND
8
POCKET_0.281
0
POLYLINE
8
POCKET_0.281
66
1
70
1
10
0
20
0
30
0
0
VERTEX
8
POCKET_0.281
10
11.7762
20
33.1888
30
0
0
VERTEX
8
POCKET_0.281
10
14.7863
20
33.1888
30
0
0
VERTEX
8
POCKET_0.281
10
14.7863
20
33.6625
30
0
0
VERTEX
8
POCKET_0.281
10
11.7762
20
33.6625
30
0
0
SEQEND
8
POCKET_0.281
0
POLYLINE
8
POCKET_0.281
66
1
70
1
10
0
20
0
30
0
0
VERTEX
8
POCKET_0.281
10
29.7763
20
33.1888
30
0
0
VERTEX
8
POCKET_0.281
10
32.7863
20
33.1888
30
0
0
VERTEX
8
POCKET_0.281
10
32.7863
20
33.6625
30
0
0
VERTEX
8
POCKET_0.281
10
29.7763
20
33.6625
30
0
0
SEQEND
8
POCKET_0.281
0
POLYLINE
8
POCKET_0.281
66
1
70
1
10
0
20
0
30
0
0
VERTEX
8
POCKET_0.281
10
47.7763
20
33.1888
30
0
0
VERTEX
8
POCKET_0.281
10
50.7863
20
33.1888
30
0
0
VERTEX
8
POCKET_0.281
10
50.7863
20
33.6625
30
0
0
VERTEX
8
POCKET_0.281
10
47.7763
20
33.6625
30
0
0
SEQEND
8
POCKET_0.281
0
TEXT
8
LABEL_NOCUT
10
0.9
20
29.5063
30
0
40
0.4
1
BOTTOM
0
POLYLINE
8
PROFILE_OUTSIDE
66
1
70
1
10
0
20
0
30
0
0
VERTEX
8
PROFILE_OUTSIDE
10
0.5
20
34.4125
30
0
0
VERTEX
8
PROFILE_OUTSIDE
10
11
20
34.4125
30
0
0
VERTEX
8
PROFILE_OUTSIDE
10
11
20
34.1625
30
0
0
VERTEX
8
PROFILE_OUTSIDE
10
14
20
34.1625
30
0
0
VERTEX
8
PROFILE_OUTSIDE
10
14
20
34.4125
30
0
0
VERTEX
8
PROFILE_OUTSIDE
10
29
20
34.4125
30
0
0
VERTEX
8
PROFILE_OUTSIDE
10
29
20
34.1625
30
0
0
VERTEX
8
PROFILE_OUTSIDE
10
32
20
34.1625
30
0
0
VERTEX
8
PROFILE_OUTSIDE
10
32
20
34.4125
30
0
0
VERTEX
8
PROFILE_OUTSIDE
10
47
20
34.4125
30
0
0
VERTEX
8
PROFILE_OUTSIDE
10
47
20
34.1625
30
0
0
VERTEX
8
PROFILE_OUTSIDE
10
50
20
34.1625
30
0
0
VERTEX
8
PROFILE_OUTSIDE
10
50
20
34.4125
30
0
0
VERTEX
8
PROFILE_OUTSIDE
10
60.5
20
34.4125
30
0
0
VERTEX
8
PROFILE_OUTSIDE
10
60.5
20
37.6
30
0
0
VERTEX
8
PROFILE_OUTSIDE
10
0.5
20
37.6
30
0
0
SEQEND
8
PROFILE_OUTSIDE
0
TEXT
8
LABEL_NOCUT
10
0.9
20
35.6813
30
0
40
0.4
1
BACK
0
POLYLINE
8
PROFILE_OUTSIDE
66
1
70
1
10
0
20
0
30
0
0
VERTEX
8
PROFILE_OUTSIDE
10
62.8125
20
26
30
0
0
VERTEX
8
PROFILE_OUTSIDE
10
65.2184
20
26
30
0
0
VERTEX
8
PROFILE_OUTSIDE
10
65.2184
20
25.75
30
0
0
VERTEX
8
PROFILE_OUTSIDE
10
67.2184
20
25.75
30
0
0
VERTEX
8
PROFILE_OUTSIDE
10
67.2184
20
26
30
0
0
VERTEX
8
PROFILE_OUTSIDE
10
68.2459
20
26
30
0
0
VERTEX
8
PROFILE_OUTSIDE
10
68.2459
20
25.75
30
0
0
VERTEX
8
PROFILE_OUTSIDE
10
70.2459
20
25.75
30
0
0
VERTEX
8
PROFILE_OUTSIDE
10
70.2459
20
26
30
0
0
VERTEX
8
PROFILE_OUTSIDE
10
70.3813
20
26
30
0
0
VERTEX
8
PROFILE_OUTSIDE
10
70.3813
20
29.1875
30
0
0
VERTEX
8
PROFILE_OUTSIDE
10
62.8125
20
29.1875
30
0
0
SEQEND
8
PROFILE_OUTSIDE
0
TEXT
8
LABEL_NOCUT
10
63.2125
20
27.2688
30
0
40
0.4
1
END_L
0
POLYLINE
8
PROFILE_OUTSIDE
66
1
70
1
10
0
20
0
30
0
0
VERTEX
8
PROFILE_OUTSIDE
10
70.3813
20
33.125
30
0
0
VERTEX
8
PROFILE_OUTSIDE
10
62.8125
20
33.125
30
0
0
VERTEX
8
PROFILE_OUTSIDE
10
62.8125
20
29.9375
30
0
0
VERTEX
8
PROFILE_OUTSIDE
10
62.9478
20
29.9375
30
0
0
VERTEX
8
PROFILE_OUTSIDE
10
62.9478
20
29.6875
30
0
0
VERTEX
8
PROFILE_OUTSIDE
10
64.9478
20
29.6875
30
0
0
VERTEX
8
PROFILE_OUTSIDE
10
64.9478
20
29.9375
30
0
0
VERTEX
8
PROFILE_OUTSIDE
10
65.9753
20
29.9375
30
0
0
VERTEX
8
PROFILE_OUTSIDE
10
65.9753
20
29.6875
30
0
0
VERTEX
8
PROFILE_OUTSIDE
10
67.9753
20
29.6875
30
0
0
VERTEX
8
PROFILE_OUTSIDE
10
67.9753
20
29.9375
30
0
0
VERTEX
8
PROFILE_OUTSIDE
10
70.3813
20
29.9375
30
0
0
SEQEND
8
PROFILE_OUTSIDE
0
TEXT
8
LABEL_NOCUT
10
63.2125
20
31.2063
30
0
40
0.4
1
END_R
0
ENDSEC
0
EOF
