0
SECTION
2
HEADER
9
$ACADVER
1
AC1009
9
$INSUNITS
70
1
9
$MEASUREMENT
70
0
0
ENDSEC
0
SECTION
2
TABLES
0
TABLE
2
LAYER
70
3
0
LAYER
2
SHEET_BORDER
70
0
62
8
6
CONTINUOUS
0
LAYER
2
PROFILE_OUTSIDE
70
0
62
1
6
CONTINUOUS
0
LAYER
2
LABEL_NOCUT
70
0
62
3
6
CONTINUOUS
0
ENDTAB
0
ENDSEC
0
SECTION
2
ENTITIES
0
POLYLINE
8
SHEET_BORDER
66
1
70
1
10
0
20
0
30
0
0
VERTEX
8
SHEET_BORDER
10
0
20
0
30
0
0
VERTEX
8
SHEET_BORDER
10
96
20
0
30
0
0
VERTEX
8
SHEET_BORDER
10
96
20
48
30
0
0
VERTEX
8
SHEET_BORDER
10
0
20
48
30
0
0
SEQEND
8
SHEET_BORDER
0
POLYLINE
8
PROFILE_OUTSIDE
66
1
70
1
10
0
20
0
30
0
0
VERTEX
8
PROFILE_OUTSIDE
10
0.5
20
0.5
30
0
0
VERTEX
8
PROFILE_OUTSIDE
10
60.8438
20
0.5
30
0
0
VERTEX
8
PROFILE_OUTSIDE
10
60.8438
20
3.4375
30
0
0
VERTEX
8
PROFILE_OUTSIDE
10
31.6719
20
3.4375
30
0
0
VERTEX
8
PROFILE_OUTSIDE
10
31.6633
20
3.307
30
0
0
VERTEX
8
PROFILE_OUTSIDE
10
31.6378
20
3.1787
30
0
0
VERTEX
8
PROFILE_OUTSIDE
10
31.5958
20
3.0548
30
0
0
VERTEX
8
PROFILE_OUTSIDE
10
31.5379
20
2.9375
30
0
0
VERTEX
8
PROFILE_OUTSIDE
10
31.4652
20
2.8287
30
0
0
VERTEX
8
PROFILE_OUTSIDE
10
31.379
20
2.7304
30
0
0
VERTEX
8
PROFILE_OUTSIDE
10
31.2806
20
2.6441
30
0
0
VERTEX
8
PROFILE_OUTSIDE
10
31.1719
20
2.5715
30
0
0
VERTEX
8
PROFILE_OUTSIDE
10
31.0546
20
2.5136
30
0
0
VERTEX
8
PROFILE_OUTSIDE
10
30.9307
20
2.4716
30
0
0
VERTEX
8
PROFILE_OUTSIDE
10
30.8024
20
2.4461
30
0
0
VERTEX
8
PROFILE_OUTSIDE
10
30.6719
20
2.4375
30
0
0
VERTEX
8
PROFILE_OUTSIDE
10
30.5413
20
2.4461
30
0
0
VERTEX
8
PROFILE_OUTSIDE
10
30.4131
20
2.4716
30
0
0
VERTEX
8
PROFILE_OUTSIDE
10
30.2892
20
2.5136
30
0
0
VERTEX
8
PROFILE_OUTSIDE
10
30.1719
20
2.5715
30
0
0
VERTEX
8
PROFILE_OUTSIDE
10
30.0631
20
2.6441
30
0
0
VERTEX
8
PROFILE_OUTSIDE
10
29.9648
20
2.7304
30
0
0
VERTEX
8
PROFILE_OUTSIDE
10
29.8785
20
2.8287
30
0
0
VERTEX
8
PROFILE_OUTSIDE
10
29.8058
20
2.9375
30
0
0
VERTEX
8
PROFILE_OUTSIDE
10
29.748
20
3.0548
30
0
0
VERTEX
8
PROFILE_OUTSIDE
10
29.7059
20
3.1787
30
0
0
VERTEX
8
PROFILE_OUTSIDE
10
29.6804
20
3.307
30
0
0
VERTEX
8
PROFILE_OUTSIDE
10
29.6719
20
3.4375
30
0
0
VERTEX
8
PROFILE_OUTSIDE
10
0.5
20
3.4375
30
0
0
SEQEND
8
PROFILE_OUTSIDE
0
TEXT
8
LABEL_NOCUT
10
0.9
20
1.7688
30
0
40
0.4
1
DIVIDER
0
ENDSEC
0
EOF
