0
SECTION
2
HEADER
9
$ACADVER
1
AC1009
9
$INSUNITS
70
1
9
$MEASUREMENT
70
0
0
ENDSEC
0
SECTION
2
TABLES
0
TABLE
2
LAYER
70
11
0
LAYER
2
SHEET_BORDER
70
0
62
8
6
CONTINUOUS
0
LAYER
2
PROFILE_OUTSIDE
70
0
62
1
6
CONTINUOUS
0
LAYER
2
POCKET_0.375
70
0
62
30
6
CONTINUOUS
0
LAYER
2
POCKET_0.250
70
0
62
2
6
CONTINUOUS
0
LAYER
2
POCKET_0.344
70
0
62
30
6
CONTINUOUS
0
LAYER
2
LABEL_NOCUT
70
0
62
3
6
CONTINUOUS
0
LAYER
2
POCKET_0.125
70
0
62
5
6
CONTINUOUS
0
LAYER
2
DRILL_0.125_CSK
70
0
62
6
6
CONTINUOUS
0
LAYER
2
POCKET_0.063
70
0
62
5
6
CONTINUOUS
0
LAYER
2
DRILL_0.281_MARK
70
0
62
6
6
CONTINUOUS
0
LAYER
2
DRILL_0.250_D0.313
70
0
62
6
6
CONTINUOUS
0
ENDTAB
0
ENDSEC
0
SECTION
2
ENTITIES
0
POLYLINE
8
SHEET_BORDER
66
1
70
1
10
0
20
0
30
0
0
VERTEX
8
SHEET_BORDER
10
0
20
0
30
0
0
VERTEX
8
SHEET_BORDER
10
96
20
0
30
0
0
VERTEX
8
SHEET_BORDER
10
96
20
48
30
0
0
VERTEX
8
SHEET_BORDER
10
0
20
48
30
0
0
SEQEND
8
SHEET_BORDER
0
POLYLINE
8
PROFILE_OUTSIDE
66
1
70
1
10
0
20
0
30
0
0
VERTEX
8
PROFILE_OUTSIDE
10
0.5
20
0.5
30
0
0
VERTEX
8
PROFILE_OUTSIDE
10
63
20
0.5
30
0
0
VERTEX
8
PROFILE_OUTSIDE
10
63
20
9.6
30
0
0
VERTEX
8
PROFILE_OUTSIDE
10
0.5
20
9.6
30
0
0
SEQEND
8
PROFILE_OUTSIDE
0
POLYLINE
8
POCKET_0.375
66
1
70
1
10
0
20
0
30
0
0
VERTEX
8
POCKET_0.375
10
1.2188
20
8.4438
30
0
0
VERTEX
8
POCKET_0.375
10
62.2813
20
8.4438
30
0
0
VERTEX
8
POCKET_0.375
10
62.2813
20
8.975
30
0
0
VERTEX
8
POCKET_0.375
10
1.2188
20
8.975
30
0
0
SEQEND
8
POCKET_0.375
0
POLYLINE
8
POCKET_0.375
66
1
70
1
10
0
20
0
30
0
0
VERTEX
8
POCKET_0.375
10
1.2188
20
7.6625
30
0
0
VERTEX
8
POCKET_0.375
10
62.2813
20
7.6625
30
0
0
VERTEX
8
POCKET_0.375
10
62.2813
20
8.1938
30
0
0
VERTEX
8
POCKET_0.375
10
1.2188
20
8.1938
30
0
0
SEQEND
8
POCKET_0.375
0
POLYLINE
8
POCKET_0.250
66
1
70
1
10
0
20
0
30
0
0
VERTEX
8
POCKET_0.250
10
31.2763
20
0.5
30
0
0
VERTEX
8
POCKET_0.250
10
32.2238
20
0.5
30
0
0
VERTEX
8
POCKET_0.250
10
32.2238
20
7.5125
30
0
0
VERTEX
8
POCKET_0.250
10
31.2763
20
7.5125
30
0
0
SEQEND
8
POCKET_0.250
0
POLYLINE
8
POCKET_0.344
66
1
70
1
10
0
20
0
30
0
0
VERTEX
8
POCKET_0.344
10
0.5
20
6.995
30
0
0
VERTEX
8
POCKET_0.344
10
1.2288
20
6.995
30
0
0
VERTEX
8
POCKET_0.344
10
1.2288
20
9.005
30
0
0
VERTEX
8
POCKET_0.344
10
0.5
20
9.005
30
0
0
SEQEND
8
POCKET_0.344
0
POLYLINE
8
POCKET_0.344
66
1
70
1
10
0
20
0
30
0
0
VERTEX
8
POCKET_0.344
10
62.2713
20
6.995
30
0
0
VERTEX
8
POCKET_0.344
10
63
20
6.995
30
0
0
VERTEX
8
POCKET_0.344
10
63
20
9.005
30
0
0
VERTEX
8
POCKET_0.344
10
62.2713
20
9.005
30
0
0
SEQEND
8
POCKET_0.344
0
POLYLINE
8
POCKET_0.344
66
1
70
1
10
0
20
0
30
0
0
VERTEX
8
POCKET_0.344
10
0.5
20
4.045
30
0
0
VERTEX
8
POCKET_0.344
10
1.2288
20
4.045
30
0
0
VERTEX
8
POCKET_0.344
10
1.2288
20
6.055
30
0
0
VERTEX
8
POCKET_0.344
10
0.5
20
6.055
30
0
0
SEQEND
8
POCKET_0.344
0
POLYLINE
8
POCKET_0.344
66
1
70
1
10
0
20
0
30
0
0
VERTEX
8
POCKET_0.344
10
62.2713
20
4.045
30
0
0
VERTEX
8
POCKET_0.344
10
63
20
4.045
30
0
0
VERTEX
8
POCKET_0.344
10
63
20
6.055
30
0
0
VERTEX
8
POCKET_0.344
10
62.2713
20
6.055
30
0
0
SEQEND
8
POCKET_0.344
0
POLYLINE
8
POCKET_0.344
66
1
70
1
10
0
20
0
30
0
0
VERTEX
8
POCKET_0.344
10
0.5
20
1.095
30
0
0
VERTEX
8
POCKET_0.344
10
1.2288
20
1.095
30
0
0
VERTEX
8
POCKET_0.344
10
1.2288
20
3.105
30
0
0
VERTEX
8
POCKET_0.344
10
0.5
20
3.105
30
0
0
SEQEND
8
POCKET_0.344
0
POLYLINE
8
POCKET_0.344
66
1
70
1
10
0
20
0
30
0
0
VERTEX
8
POCKET_0.344
10
62.2713
20
1.095
30
0
0
VERTEX
8
POCKET_0.344
10
63
20
1.095
30
0
0
VERTEX
8
POCKET_0.344
10
63
20
3.105
30
0
0
VERTEX
8
POCKET_0.344
10
62.2713
20
3.105
30
0
0
SEQEND
8
POCKET_0.344
0
TEXT
8
LABEL_NOCUT
10
0.9
20
4.85
30
0
40
0.4
1
TOP
0
POLYLINE
8
PROFILE_OUTSIDE
66
1
70
1
10
0
20
0
30
0
0
VERTEX
8
PROFILE_OUTSIDE
10
0.5
20
10.1
30
0
0
VERTEX
8
PROFILE_OUTSIDE
10
62.0625
20
10.1
30
0
0
VERTEX
8
PROFILE_OUTSIDE
10
62.0625
20
19.2
30
0
0
VERTEX
8
PROFILE_OUTSIDE
10
0.5
20
19.2
30
0
0
SEQEND
8
PROFILE_OUTSIDE
0
POLYLINE
8
POCKET_0.125
66
1
70
1
10
0
20
0
30
0
0
VERTEX
8
POCKET_0.125
10
0.75
20
10.725
30
0
0
VERTEX
8
POCKET_0.125
10
61.8125
20
10.725
30
0
0
VERTEX
8
POCKET_0.125
10
61.8125
20
11.2563
30
0
0
VERTEX
8
POCKET_0.125
10
0.75
20
11.2563
30
0
0
SEQEND
8
POCKET_0.125
0
POLYLINE
8
POCKET_0.125
66
1
70
1
10
0
20
0
30
0
0
VERTEX
8
POCKET_0.125
10
0.75
20
11.5063
30
0
0
VERTEX
8
POCKET_0.125
10
61.8125
20
11.5063
30
0
0
VERTEX
8
POCKET_0.125
10
61.8125
20
12.0375
30
0
0
VERTEX
8
POCKET_0.125
10
0.75
20
12.0375
30
0
0
SEQEND
8
POCKET_0.125
0
POLYLINE
8
POCKET_0.250
66
1
70
1
10
0
20
0
30
0
0
VERTEX
8
POCKET_0.250
10
30.8075
20
12.1875
30
0
0
VERTEX
8
POCKET_0.250
10
31.755
20
12.1875
30
0
0
VERTEX
8
POCKET_0.250
10
31.755
20
19.2
30
0
0
VERTEX
8
POCKET_0.250
10
30.8075
20
19.2
30
0
0
SEQEND
8
POCKET_0.250
0
CIRCLE
8
DRILL_0.125_CSK
10
15.6563
20
13.1
30
0
40
0.0625
0
CIRCLE
8
DRILL_0.125_CSK
10
46.9063
20
13.1
30
0
40
0.0625
0
TEXT
8
LABEL_NOCUT
10
0.9
20
14.45
30
0
40
0.4
1
MID
0
POLYLINE
8
PROFILE_OUTSIDE
66
1
70
1
10
0
20
0
30
0
0
VERTEX
8
PROFILE_OUTSIDE
10
0.5
20
19.7
30
0
0
VERTEX
8
PROFILE_OUTSIDE
10
62.0625
20
19.7
30
0
0
VERTEX
8
PROFILE_OUTSIDE
10
62.0625
20
27.3313
30
0
0
VERTEX
8
PROFILE_OUTSIDE
10
0.5
20
27.3313
30
0
0
SEQEND
8
PROFILE_OUTSIDE
0
POLYLINE
8
POCKET_0.063
66
1
70
1
10
0
20
0
30
0
0
VERTEX
8
POCKET_0.063
10
4.3973
20
19.7
30
0
0
VERTEX
8
POCKET_0.063
10
5.3973
20
19.7
30
0
0
VERTEX
8
POCKET_0.063
10
5.3973
20
27.3313
30
0
0
VERTEX
8
POCKET_0.063
10
4.3973
20
27.3313
30
0
0
SEQEND
8
POCKET_0.063
0
POLYLINE
8
POCKET_0.063
66
1
70
1
10
0
20
0
30
0
0
VERTEX
8
POCKET_0.063
10
13.192
20
19.7
30
0
0
VERTEX
8
POCKET_0.063
10
14.192
20
19.7
30
0
0
VERTEX
8
POCKET_0.063
10
14.192
20
27.3313
30
0
0
VERTEX
8
POCKET_0.063
10
13.192
20
27.3313
30
0
0
SEQEND
8
POCKET_0.063
0
POLYLINE
8
POCKET_0.063
66
1
70
1
10
0
20
0
30
0
0
VERTEX
8
POCKET_0.063
10
21.9866
20
19.7
30
0
0
VERTEX
8
POCKET_0.063
10
22.9866
20
19.7
30
0
0
VERTEX
8
POCKET_0.063
10
22.9866
20
27.3313
30
0
0
VERTEX
8
POCKET_0.063
10
21.9866
20
27.3313
30
0
0
SEQEND
8
POCKET_0.063
0
POLYLINE
8
POCKET_0.063
66
1
70
1
10
0
20
0
30
0
0
VERTEX
8
POCKET_0.063
10
30.7813
20
19.7
30
0
0
VERTEX
8
POCKET_0.063
10
31.7813
20
19.7
30
0
0
VERTEX
8
POCKET_0.063
10
31.7813
20
27.3313
30
0
0
VERTEX
8
POCKET_0.063
10
30.7813
20
27.3313
30
0
0
SEQEND
8
POCKET_0.063
0
POLYLINE
8
POCKET_0.063
66
1
70
1
10
0
20
0
30
0
0
VERTEX
8
POCKET_0.063
10
39.5759
20
19.7
30
0
0
VERTEX
8
POCKET_0.063
10
40.5759
20
19.7
30
0
0
VERTEX
8
POCKET_0.063
10
40.5759
20
27.3313
30
0
0
VERTEX
8
POCKET_0.063
10
39.5759
20
27.3313
30
0
0
SEQEND
8
POCKET_0.063
0
POLYLINE
8
POCKET_0.063
66
1
70
1
10
0
20
0
30
0
0
VERTEX
8
POCKET_0.063
10
48.3705
20
19.7
30
0
0
VERTEX
8
POCKET_0.063
10
49.3705
20
19.7
30
0
0
VERTEX
8
POCKET_0.063
10
49.3705
20
27.3313
30
0
0
VERTEX
8
POCKET_0.063
10
48.3705
20
27.3313
30
0
0
SEQEND
8
POCKET_0.063
0
POLYLINE
8
POCKET_0.063
66
1
70
1
10
0
20
0
30
0
0
VERTEX
8
POCKET_0.063
10
57.1652
20
19.7
30
0
0
VERTEX
8
POCKET_0.063
10
58.1652
20
19.7
30
0
0
VERTEX
8
POCKET_0.063
10
58.1652
20
27.3313
30
0
0
VERTEX
8
POCKET_0.063
10
57.1652
20
27.3313
30
0
0
SEQEND
8
POCKET_0.063
0
TEXT
8
LABEL_NOCUT
10
0.9
20
23.3156
30
0
40
0.4
1
BASE
0
POLYLINE
8
PROFILE_OUTSIDE
66
1
70
1
10
0
20
0
30
0
0
VERTEX
8
PROFILE_OUTSIDE
10
0.5
20
27.8313
30
0
0
VERTEX
8
PROFILE_OUTSIDE
10
61.4375
20
27.8313
30
0
0
VERTEX
8
PROFILE_OUTSIDE
10
61.4375
20
32.3313
30
0
0
VERTEX
8
PROFILE_OUTSIDE
10
0.5
20
32.3313
30
0
0
SEQEND
8
PROFILE_OUTSIDE
0
POLYLINE
8
POCKET_0.375
66
1
70
1
10
0
20
0
30
0
0
VERTEX
8
POCKET_0.375
10
5.5888
20
28.545
30
0
0
VERTEX
8
POCKET_0.375
10
7.5988
20
28.545
30
0
0
VERTEX
8
POCKET_0.375
10
7.5988
20
29.0237
30
0
0
VERTEX
8
POCKET_0.375
10
5.5888
20
29.0237
30
0
0
SEQEND
8
POCKET_0.375
0
POLYLINE
8
POCKET_0.375
66
1
70
1
10
0
20
0
30
0
0
VERTEX
8
POCKET_0.375
10
14.7294
20
28.545
30
0
0
VERTEX
8
POCKET_0.375
10
16.7394
20
28.545
30
0
0
VERTEX
8
POCKET_0.375
10
16.7394
20
29.0237
30
0
0
VERTEX
8
POCKET_0.375
10
14.7294
20
29.0237
30
0
0
SEQEND
8
POCKET_0.375
0
POLYLINE
8
POCKET_0.375
66
1
70
1
10
0
20
0
30
0
0
VERTEX
8
POCKET_0.375
10
23.87
20
28.545
30
0
0
VERTEX
8
POCKET_0.375
10
25.88
20
28.545
30
0
0
VERTEX
8
POCKET_0.375
10
25.88
20
29.0237
30
0
0
VERTEX
8
POCKET_0.375
10
23.87
20
29.0237
30
0
0
SEQEND
8
POCKET_0.375
0
POLYLINE
8
POCKET_0.375
66
1
70
1
10
0
20
0
30
0
0
VERTEX
8
POCKET_0.375
10
36.0575
20
28.545
30
0
0
VERTEX
8
POCKET_0.375
10
38.0675
20
28.545
30
0
0
VERTEX
8
POCKET_0.375
10
38.0675
20
29.0237
30
0
0
VERTEX
8
POCKET_0.375
10
36.0575
20
29.0237
30
0
0
SEQEND
8
POCKET_0.375
0
POLYLINE
8
POCKET_0.375
66
1
70
1
10
0
20
0
30
0
0
VERTEX
8
POCKET_0.375
10
45.1981
20
28.545
30
0
0
VERTEX
8
POCKET_0.375
10
47.2081
20
28.545
30
0
0
VERTEX
8
POCKET_0.375
10
47.2081
20
29.0237
30
0
0
VERTEX
8
POCKET_0.375
10
45.1981
20
29.0237
30
0
0
SEQEND
8
POCKET_0.375
0
POLYLINE
8
POCKET_0.375
66
1
70
1
10
0
20
0
30
0
0
VERTEX
8
POCKET_0.375
10
54.3388
20
28.545
30
0
0
VERTEX
8
POCKET_0.375
10
56.3488
20
28.545
30
0
0
VERTEX
8
POCKET_0.375
10
56.3488
20
29.0237
30
0
0
VERTEX
8
POCKET_0.375
10
54.3388
20
29.0237
30
0
0
SEQEND
8
POCKET_0.375
0
CIRCLE
8
DRILL_0.281_MARK
10
30.9688
20
31.5188
30
0
40
0.1406
0
TEXT
8
LABEL_NOCUT
10
0.9
20
29.8813
30
0
40
0.4
1
FRONT
0
POLYLINE
8
PROFILE_OUTSIDE
66
1
70
1
10
0
20
0
30
0
0
VERTEX
8
PROFILE_OUTSIDE
10
93.5938
20
0.5
30
0
0
VERTEX
8
PROFILE_OUTSIDE
10
93.5938
20
8.85
30
0
0
VERTEX
8
PROFILE_OUTSIDE
10
88.9688
20
8.85
30
0
0
VERTEX
8
PROFILE_OUTSIDE
10
88.9688
20
9.6
30
0
0
VERTEX
8
PROFILE_OUTSIDE
10
63.8125
20
9.6
30
0
0
VERTEX
8
PROFILE_OUTSIDE
10
63.8125
20
9
30
0
0
VERTEX
8
PROFILE_OUTSIDE
10
63.5
20
9
30
0
0
VERTEX
8
PROFILE_OUTSIDE
10
63.5
20
7
30
0
0
VERTEX
8
PROFILE_OUTSIDE
10
63.8125
20
7
30
0
0
VERTEX
8
PROFILE_OUTSIDE
10
63.8125
20
6.05
30
0
0
VERTEX
8
PROFILE_OUTSIDE
10
63.5
20
6.05
30
0
0
VERTEX
8
PROFILE_OUTSIDE
10
63.5
20
4.05
30
0
0
VERTEX
8
PROFILE_OUTSIDE
10
63.8125
20
4.05
30
0
0
VERTEX
8
PROFILE_OUTSIDE
10
63.8125
20
3.1
30
0
0
VERTEX
8
PROFILE_OUTSIDE
10
63.5
20
3.1
30
0
0
VERTEX
8
PROFILE_OUTSIDE
10
63.5
20
1.1
30
0
0
VERTEX
8
PROFILE_OUTSIDE
10
63.8125
20
1.1
30
0
0
VERTEX
8
PROFILE_OUTSIDE
10
63.8125
20
0.5
30
0
0
SEQEND
8
PROFILE_OUTSIDE
0
POLYLINE
8
POCKET_0.250
66
1
70
1
10
0
20
0
30
0
0
VERTEX
8
POCKET_0.250
10
88.9688
20
0.5
30
0
0
VERTEX
8
POCKET_0.250
10
88.9688
20
9.6
30
0
0
VERTEX
8
POCKET_0.250
10
88.24
20
9.6
30
0
0
VERTEX
8
POCKET_0.250
10
88.24
20
0.5
30
0
0
SEQEND
8
POCKET_0.250
0
POLYLINE
8
POCKET_0.250
66
1
70
1
10
0
20
0
30
0
0
VERTEX
8
POCKET_0.250
10
93.5938
20
0.5
30
0
0
VERTEX
8
POCKET_0.250
10
93.5938
20
8.85
30
0
0
VERTEX
8
POCKET_0.250
10
92.865
20
8.85
30
0
0
VERTEX
8
POCKET_0.250
10
92.865
20
0.5
30
0
0
SEQEND
8
POCKET_0.250
0
POLYLINE
8
POCKET_0.375
66
1
70
1
10
0
20
0
30
0
0
VERTEX
8
POCKET_0.375
10
92.875
20
0.5
30
0
0
VERTEX
8
POCKET_0.375
10
92.875
20
8.85
30
0
0
VERTEX
8
POCKET_0.375
10
92.2813
20
8.85
30
0
0
VERTEX
8
POCKET_0.375
10
92.2813
20
0.5
30
0
0
SEQEND
8
POCKET_0.375
0
CIRCLE
8
DRILL_0.250_D0.313
10
85.75
20
3.3375
30
0
40
0.125
0
CIRCLE
8
DRILL_0.250_D0.313
10
85.75
20
8.35
30
0
40
0.125
0
CIRCLE
8
DRILL_0.250_D0.313
10
84.5
20
3.3375
30
0
40
0.125
0
CIRCLE
8
DRILL_0.250_D0.313
10
84.5
20
8.35
30
0
40
0.125
0
CIRCLE
8
DRILL_0.250_D0.313
10
83.25
20
3.3375
30
0
40
0.125
0
CIRCLE
8
DRILL_0.250_D0.313
10
83.25
20
8.35
30
0
40
0.125
0
CIRCLE
8
DRILL_0.250_D0.313
10
82
20
3.3375
30
0
40
0.125
0
CIRCLE
8
DRILL_0.250_D0.313
10
82
20
8.35
30
0
40
0.125
0
CIRCLE
8
DRILL_0.250_D0.313
10
80.75
20
3.3375
30
0
40
0.125
0
CIRCLE
8
DRILL_0.250_D0.313
10
80.75
20
8.35
30
0
40
0.125
0
CIRCLE
8
DRILL_0.250_D0.313
10
79.5
20
3.3375
30
0
40
0.125
0
CIRCLE
8
DRILL_0.250_D0.313
10
79.5
20
8.35
30
0
40
0.125
0
CIRCLE
8
DRILL_0.250_D0.313
10
78.25
20
3.3375
30
0
40
0.125
0
CIRCLE
8
DRILL_0.250_D0.313
10
78.25
20
8.35
30
0
40
0.125
0
CIRCLE
8
DRILL_0.250_D0.313
10
77
20
3.3375
30
0
40
0.125
0
CIRCLE
8
DRILL_0.250_D0.313
10
77
20
8.35
30
0
40
0.125
0
CIRCLE
8
DRILL_0.250_D0.313
10
75.75
20
3.3375
30
0
40
0.125
0
CIRCLE
8
DRILL_0.250_D0.313
10
75.75
20
8.35
30
0
40
0.125
0
CIRCLE
8
DRILL_0.250_D0.313
10
74.5
20
3.3375
30
0
40
0.125
0
CIRCLE
8
DRILL_0.250_D0.313
10
74.5
20
8.35
30
0
40
0.125
0
CIRCLE
8
DRILL_0.250_D0.313
10
73.25
20
3.3375
30
0
40
0.125
0
CIRCLE
8
DRILL_0.250_D0.313
10
73.25
20
8.35
30
0
40
0.125
0
CIRCLE
8
DRILL_0.250_D0.313
10
72
20
3.3375
30
0
40
0.125
0
CIRCLE
8
DRILL_0.250_D0.313
10
72
20
8.35
30
0
40
0.125
0
CIRCLE
8
DRILL_0.250_D0.313
10
70.75
20
3.3375
30
0
40
0.125
0
CIRCLE
8
DRILL_0.250_D0.313
10
70.75
20
8.35
30
0
40
0.125
0
CIRCLE
8
DRILL_0.250_D0.313
10
69.5
20
3.3375
30
0
40
0.125
0
CIRCLE
8
DRILL_0.250_D0.313
10
69.5
20
8.35
30
0
40
0.125
0
CIRCLE
8
DRILL_0.250_D0.313
10
68.25
20
3.3375
30
0
40
0.125
0
CIRCLE
8
DRILL_0.250_D0.313
10
68.25
20
8.35
30
0
40
0.125
0
CIRCLE
8
DRILL_0.250_D0.313
10
67
20
3.3375
30
0
40
0.125
0
CIRCLE
8
DRILL_0.250_D0.313
10
67
20
8.35
30
0
40
0.125
0
TEXT
8
LABEL_NOCUT
10
63.9
20
4.85
30
0
40
0.4
1
SIDE_L
0
POLYLINE
8
PROFILE_OUTSIDE
66
1
70
1
10
0
20
0
30
0
0
VERTEX
8
PROFILE_OUTSIDE
10
63.8125
20
19.2
30
0
0
VERTEX
8
PROFILE_OUTSIDE
10
63.8125
20
18.6
30
0
0
VERTEX
8
PROFILE_OUTSIDE
10
63.5
20
18.6
30
0
0
VERTEX
8
PROFILE_OUTSIDE
10
63.5
20
16.6
30
0
0
VERTEX
8
PROFILE_OUTSIDE
10
63.8125
20
16.6
30
0
0
VERTEX
8
PROFILE_OUTSIDE
10
63.8125
20
15.65
30
0
0
VERTEX
8
PROFILE_OUTSIDE
10
63.5
20
15.65
30
0
0
VERTEX
8
PROFILE_OUTSIDE
10
63.5
20
13.65
30
0
0
VERTEX
8
PROFILE_OUTSIDE
10
63.8125
20
13.65
30
0
0
VERTEX
8
PROFILE_OUTSIDE
10
63.8125
20
12.7
30
0
0
VERTEX
8
PROFILE_OUTSIDE
10
63.5
20
12.7
30
0
0
VERTEX
8
PROFILE_OUTSIDE
10
63.5
20
10.7
30
0
0
VERTEX
8
PROFILE_OUTSIDE
10
63.8125
20
10.7
30
0
0
VERTEX
8
PROFILE_OUTSIDE
10
63.8125
20
10.1
30
0
0
VERTEX
8
PROFILE_OUTSIDE
10
88.9688
20
10.1
30
0
0
VERTEX
8
PROFILE_OUTSIDE
10
88.9688
20
10.85
30
0
0
VERTEX
8
PROFILE_OUTSIDE
10
93.5938
20
10.85
30
0
0
VERTEX
8
PROFILE_OUTSIDE
10
93.5938
20
19.2
30
0
0
SEQEND
8
PROFILE_OUTSIDE
0
POLYLINE
8
POCKET_0.250
66
1
70
1
10
0
20
0
30
0
0
VERTEX
8
POCKET_0.250
10
88.24
20
19.2
30
0
0
VERTEX
8
POCKET_0.250
10
88.24
20
10.1
30
0
0
VERTEX
8
POCKET_0.250
10
88.9688
20
10.1
30
0
0
VERTEX
8
POCKET_0.250
10
88.9688
20
19.2
30
0
0
SEQEND
8
POCKET_0.250
0
POLYLINE
8
POCKET_0.250
66
1
70
1
10
0
20
0
30
0
0
VERTEX
8
POCKET_0.250
10
92.865
20
19.2
30
0
0
VERTEX
8
POCKET_0.250
10
92.865
20
10.85
30
0
0
VERTEX
8
POCKET_0.250
10
93.5938
20
10.85
30
0
0
VERTEX
8
POCKET_0.250
10
93.5938
20
19.2
30
0
0
SEQEND
8
POCKET_0.250
0
POLYLINE
8
POCKET_0.375
66
1
70
1
10
0
20
0
30
0
0
VERTEX
8
POCKET_0.375
10
92.2813
20
19.2
30
0
0
VERTEX
8
POCKET_0.375
10
92.2813
20
10.85
30
0
0
VERTEX
8
POCKET_0.375
10
92.875
20
10.85
30
0
0
VERTEX
8
POCKET_0.375
10
92.875
20
19.2
30
0
0
SEQEND
8
POCKET_0.375
0
CIRCLE
8
DRILL_0.250_D0.313
10
85.75
20
16.3625
30
0
40
0.125
0
CIRCLE
8
DRILL_0.250_D0.313
10
85.75
20
11.35
30
0
40
0.125
0
CIRCLE
8
DRILL_0.250_D0.313
10
84.5
20
16.3625
30
0
40
0.125
0
CIRCLE
8
DRILL_0.250_D0.313
10
84.5
20
11.35
30
0
40
0.125
0
CIRCLE
8
DRILL_0.250_D0.313
10
83.25
20
16.3625
30
0
40
0.125
0
CIRCLE
8
DRILL_0.250_D0.313
10
83.25
20
11.35
30
0
40
0.125
0
CIRCLE
8
DRILL_0.250_D0.313
10
82
20
16.3625
30
0
40
0.125
0
CIRCLE
8
DRILL_0.250_D0.313
10
82
20
11.35
30
0
40
0.125
0
CIRCLE
8
DRILL_0.250_D0.313
10
80.75
20
16.3625
30
0
40
0.125
0
CIRCLE
8
DRILL_0.250_D0.313
10
80.75
20
11.35
30
0
40
0.125
0
CIRCLE
8
DRILL_0.250_D0.313
10
79.5
20
16.3625
30
0
40
0.125
0
CIRCLE
8
DRILL_0.250_D0.313
10
79.5
20
11.35
30
0
40
0.125
0
CIRCLE
8
DRILL_0.250_D0.313
10
78.25
20
16.3625
30
0
40
0.125
0
CIRCLE
8
DRILL_0.250_D0.313
10
78.25
20
11.35
30
0
40
0.125
0
CIRCLE
8
DRILL_0.250_D0.313
10
77
20
16.3625
30
0
40
0.125
0
CIRCLE
8
DRILL_0.250_D0.313
10
77
20
11.35
30
0
40
0.125
0
CIRCLE
8
DRILL_0.250_D0.313
10
75.75
20
16.3625
30
0
40
0.125
0
CIRCLE
8
DRILL_0.250_D0.313
10
75.75
20
11.35
30
0
40
0.125
0
CIRCLE
8
DRILL_0.250_D0.313
10
74.5
20
16.3625
30
0
40
0.125
0
CIRCLE
8
DRILL_0.250_D0.313
10
74.5
20
11.35
30
0
40
0.125
0
CIRCLE
8
DRILL_0.250_D0.313
10
73.25
20
16.3625
30
0
40
0.125
0
CIRCLE
8
DRILL_0.250_D0.313
10
73.25
20
11.35
30
0
40
0.125
0
CIRCLE
8
DRILL_0.250_D0.313
10
72
20
16.3625
30
0
40
0.125
0
CIRCLE
8
DRILL_0.250_D0.313
10
72
20
11.35
30
0
40
0.125
0
CIRCLE
8
DRILL_0.250_D0.313
10
70.75
20
16.3625
30
0
40
0.125
0
CIRCLE
8
DRILL_0.250_D0.313
10
70.75
20
11.35
30
0
40
0.125
0
CIRCLE
8
DRILL_0.250_D0.313
10
69.5
20
16.3625
30
0
40
0.125
0
CIRCLE
8
DRILL_0.250_D0.313
10
69.5
20
11.35
30
0
40
0.125
0
CIRCLE
8
DRILL_0.250_D0.313
10
68.25
20
16.3625
30
0
40
0.125
0
CIRCLE
8
DRILL_0.250_D0.313
10
68.25
20
11.35
30
0
40
0.125
0
CIRCLE
8
DRILL_0.250_D0.313
10
67
20
16.3625
30
0
40
0.125
0
CIRCLE
8
DRILL_0.250_D0.313
10
67
20
11.35
30
0
40
0.125
0
TEXT
8
LABEL_NOCUT
10
63.9
20
14.45
30
0
40
0.4
1
SIDE_R
0
POLYLINE
8
PROFILE_OUTSIDE
66
1
70
1
10
0
20
0
30
0
0
VERTEX
8
PROFILE_OUTSIDE
10
0.5
20
32.8313
30
0
0
VERTEX
8
PROFILE_OUTSIDE
10
30.5
20
32.8313
30
0
0
VERTEX
8
PROFILE_OUTSIDE
10
30.5
20
39.0437
30
0
0
VERTEX
8
PROFILE_OUTSIDE
10
0.5
20
39.0437
30
0
0
SEQEND
8
PROFILE_OUTSIDE
0
TEXT
8
LABEL_NOCUT
10
0.9
20
35.7375
30
0
40
0.4
1
SHELF
0
POLYLINE
8
PROFILE_OUTSIDE
66
1
70
1
10
0
20
0
30
0
0
VERTEX
8
PROFILE_OUTSIDE
10
31
20
32.8313
30
0
0
VERTEX
8
PROFILE_OUTSIDE
10
61
20
32.8313
30
0
0
VERTEX
8
PROFILE_OUTSIDE
10
61
20
39.0437
30
0
0
VERTEX
8
PROFILE_OUTSIDE
10
31
20
39.0437
30
0
0
SEQEND
8
PROFILE_OUTSIDE
0
TEXT
8
LABEL_NOCUT
10
31.4
20
35.7375
30
0
40
0.4
1
SHELF
0
POLYLINE
8
PROFILE_OUTSIDE
66
1
70
1
10
0
20
0
30
0
0
VERTEX
8
PROFILE_OUTSIDE
10
0.5
20
39.5437
30
0
0
VERTEX
8
PROFILE_OUTSIDE
10
30.5
20
39.5437
30
0
0
VERTEX
8
PROFILE_OUTSIDE
10
30.5
20
45.7562
30
0
0
VERTEX
8
PROFILE_OUTSIDE
10
0.5
20
45.7562
30
0
0
SEQEND
8
PROFILE_OUTSIDE
0
TEXT
8
LABEL_NOCUT
10
0.9
20
42.45
30
0
40
0.4
1
SHELF
0
POLYLINE
8
PROFILE_OUTSIDE
66
1
70
1
10
0
20
0
30
0
0
VERTEX
8
PROFILE_OUTSIDE
10
31
20
39.5437
30
0
0
VERTEX
8
PROFILE_OUTSIDE
10
61
20
39.5437
30
0
0
VERTEX
8
PROFILE_OUTSIDE
10
61
20
45.7562
30
0
0
VERTEX
8
PROFILE_OUTSIDE
10
31
20
45.7562
30
0
0
SEQEND
8
PROFILE_OUTSIDE
0
TEXT
8
LABEL_NOCUT
10
31.4
20
42.45
30
0
40
0.4
1
SHELF
0
POLYLINE
8
PROFILE_OUTSIDE
66
1
70
1
10
0
20
0
30
0
0
VERTEX
8
PROFILE_OUTSIDE
10
63.5
20
19.7
30
0
0
VERTEX
8
PROFILE_OUTSIDE
10
93.5
20
19.7
30
0
0
VERTEX
8
PROFILE_OUTSIDE
10
93.5
20
25.9125
30
0
0
VERTEX
8
PROFILE_OUTSIDE
10
63.5
20
25.9125
30
0
0
SEQEND
8
PROFILE_OUTSIDE
0
TEXT
8
LABEL_NOCUT
10
63.9
20
22.6063
30
0
40
0.4
1
SHELF
0
POLYLINE
8
PROFILE_OUTSIDE
66
1
70
1
10
0
20
0
30
0
0
VERTEX
8
PROFILE_OUTSIDE
10
63.5
20
26.4125
30
0
0
VERTEX
8
PROFILE_OUTSIDE
10
93.5
20
26.4125
30
0
0
VERTEX
8
PROFILE_OUTSIDE
10
93.5
20
32.625
30
0
0
VERTEX
8
PROFILE_OUTSIDE
10
63.5
20
32.625
30
0
0
SEQEND
8
PROFILE_OUTSIDE
0
TEXT
8
LABEL_NOCUT
10
63.9
20
29.3188
30
0
40
0.4
1
SHELF
0
POLYLINE
8
PROFILE_OUTSIDE
66
1
70
1
10
0
20
0
30
0
0
VERTEX
8
PROFILE_OUTSIDE
10
63.5
20
33.125
30
0
0
VERTEX
8
PROFILE_OUTSIDE
10
93.5
20
33.125
30
0
0
VERTEX
8
PROFILE_OUTSIDE
10
93.5
20
39.3375
30
0
0
VERTEX
8
PROFILE_OUTSIDE
10
63.5
20
39.3375
30
0
0
SEQEND
8
PROFILE_OUTSIDE
0
TEXT
8
LABEL_NOCUT
10
63.9
20
36.0313
30
0
40
0.4
1
SHELF
0
POLYLINE
8
PROFILE_OUTSIDE
66
1
70
1
10
0
20
0
30
0
0
VERTEX
8
PROFILE_OUTSIDE
10
63.5
20
39.8375
30
0
0
VERTEX
8
PROFILE_OUTSIDE
10
93.5
20
39.8375
30
0
0
VERTEX
8
PROFILE_OUTSIDE
10
93.5
20
46.05
30
0
0
VERTEX
8
PROFILE_OUTSIDE
10
63.5
20
46.05
30
0
0
SEQEND
8
PROFILE_OUTSIDE
0
TEXT
8
LABEL_NOCUT
10
63.9
20
42.7437
30
0
40
0.4
1
SHELF
0
ENDSEC
0
EOF
