<svg xmlns="http://www.w3.org/2000/svg" id="Layer_1" data-name="Layer 1" viewBox="0 0 80 80"><g id="logomark"><circle id="bg" cx="40" cy="40" r="40" style="fill:#fff"/><path id="stroke" d="M40 1.9A38.1 38.1 0 1 1 1.9 40 38.14 38.14 0 0 1 40 1.9M40 0a40 40 0 1 0 40 40A40 40 0 0 0 40 0" style="fill:#81a2b2;opacity:.25"/><g id="logo"><path d="m23.33 49.47 4.42 6.92a1.9 1.9 0 0 0 3.22 0l9.87-16.07-7.34-11.98-10.23 17.13a3.79 3.79 0 0 0 .06 4" style="fill:#00a99d"/><path d="M58.42 45.47 48.19 28.34l-7.35 12 9.88 16.07a1.9 1.9 0 0 0 3.22 0l4.42-6.92a3.82 3.82 0 0 0 .06-4.02" style="fill:#ef445a"/><path d="M45.38 23.63 42.46 19a1.9 1.9 0 0 0-3.23 0l-2.92 4.64-2.81 4.7 7.34 12 7.35-11.95Z" style="fill:#01445a"/></g></g></svg>